<svg xmlns="http://www.w3.org/2000/svg" viewBox="0 0 764 234" role="img" aria-label="eyeliner" fill="currentColor" color="#F5EEE2">
  <title>eyeliner (monochrome)</title>
  <desc>Single-colour eyeliner wordmark; word and winged underline share currentColor. For stamps, favicons, and one-colour contexts.</desc>
  <path d="M2,13 C 56,6 142,6 182,10 C 190,10.7 196,8 199,2 C 194,12 183,15.5 169,16 C 110,18 50,18 5,16.5 C 3,16.3 1.5,14.5 2,13 Z" transform="matrix(3.6380,0,0,3.1667,20.900,161.000)"/>
  <path d="M75.2 174.2Q58.400000000000006 174.2 46.2 167.14999999999998Q34.0 160.1 27.45 147.2Q20.9 134.3 20.9 116.8Q20.9 99.5 27.400000000000002 86.44999999999999Q33.900000000000006 73.39999999999999 45.7 66.1Q57.5 58.8 73.5 58.8Q83.8 58.8 93.05000000000001 62.099999999999994Q102.30000000000001 65.39999999999999 109.45000000000002 72.29999999999998Q116.60000000000001 79.19999999999999 120.70000000000002 89.85Q124.80000000000001 100.5 124.80000000000001 115.19999999999999V123.4H33.2V105.7H111.7L99.4 110.9Q99.4 101.39999999999999 96.5 94.35Q93.60000000000001 87.3 87.9 83.3Q82.2 79.3 73.7 79.3Q65.2 79.3 59.2 83.3Q53.2 87.3 50.1 94.05Q47.0 100.8 47.0 109.1V121.4Q47.0 131.6 50.55 138.85Q54.1 146.1 60.55 149.89999999999998Q67.0 153.7 75.6 153.7Q81.2 153.7 85.85 152.1Q90.5 150.5 93.85 147.25Q97.2 144.0 99.0 139.2L123.60000000000001 142.1Q121.2 151.8 114.75 159.05Q108.30000000000001 166.3 98.25 170.25Q88.2 174.2 75.2 174.2ZM155.4 213.8Q150.0 213.9 145.45 213.05Q140.9 212.2 138.10000000000002 211.1L144.3 190.6L145.60000000000002 191.0Q153.60000000000002 193.1 159.25 191.3Q164.9 189.5 168.3 180.4L170.5 174.4L130.10000000000002 60.19999999999999H158.0L183.70000000000002 144.7H184.9L210.70000000000002 60.19999999999999H238.8L194.0 185.5Q190.9 194.4 185.8 200.75Q180.70000000000002 207.1 173.20000000000002 210.45Q165.70000000000002 213.8 155.4 213.8ZM298.8 174.2Q282.0 174.2 269.8 167.14999999999998Q257.6 160.1 251.05 147.2Q244.50000000000003 134.3 244.50000000000003 116.8Q244.50000000000003 99.5 251.0 86.44999999999999Q257.5 73.39999999999999 269.3 66.1Q281.1 58.8 297.1 58.8Q307.40000000000003 58.8 316.65000000000003 62.099999999999994Q325.90000000000003 65.39999999999999 333.05000000000007 72.29999999999998Q340.20000000000005 79.19999999999999 344.30000000000007 89.85Q348.40000000000003 100.5 348.40000000000003 115.19999999999999V123.4H256.8V105.7H335.3L323.0 110.9Q323.0 101.39999999999999 320.1 94.35Q317.20000000000005 87.3 311.5 83.3Q305.8 79.3 297.3 79.3Q288.8 79.3 282.8 83.3Q276.8 87.3 273.70000000000005 94.05Q270.6 100.8 270.6 109.1V121.4Q270.6 131.6 274.15000000000003 138.85Q277.70000000000005 146.1 284.15000000000003 149.89999999999998Q290.6 153.7 299.20000000000005 153.7Q304.8 153.7 309.45000000000005 152.1Q314.1 150.5 317.45000000000005 147.25Q320.8 144.0 322.6 139.2L347.20000000000005 142.1Q344.8 151.8 338.35 159.05Q331.90000000000003 166.3 321.85 170.25Q311.8 174.2 298.8 174.2ZM388.90000000000003 23.0V172.0H362.6V23.0ZM408.3 172.0V60.19999999999999H434.6V172.0ZM421.5 44.5Q415.2 44.5 410.7 40.3Q406.2 36.099999999999994 406.2 30.19999999999999Q406.2 24.19999999999999 410.7 19.999999999999986Q415.2 15.799999999999983 421.5 15.799999999999983Q427.7 15.799999999999983 432.20000000000005 19.999999999999986Q436.70000000000005 24.19999999999999 436.70000000000005 30.099999999999994Q436.70000000000005 36.099999999999994 432.20000000000005 40.3Q427.7 44.5 421.5 44.5ZM480.3 106.6V172.0H454.0V60.19999999999999H479.8V79.3H481.1Q484.90000000000003 69.89999999999999 493.05000000000007 64.35Q501.20000000000005 58.8 513.8 58.8Q525.4 58.8 534.0 63.699999999999996Q542.6 68.6 547.35 78.05Q552.1 87.5 552.1 100.89999999999999V172.0H525.8V105.0Q525.8 93.8 520.0 87.44999999999999Q514.2 81.1 504.0 81.1Q497.1 81.1 491.75 84.1Q486.40000000000003 87.1 483.35 92.75Q480.3 98.39999999999999 480.3 106.6ZM621.0000000000001 174.2Q604.2 174.2 592.0 167.14999999999998Q579.8000000000001 160.1 573.25 147.2Q566.7 134.3 566.7 116.8Q566.7 99.5 573.2 86.44999999999999Q579.7 73.39999999999999 591.5 66.1Q603.3000000000001 58.8 619.3000000000001 58.8Q629.6 58.8 638.8500000000001 62.099999999999994Q648.1000000000001 65.39999999999999 655.2500000000001 72.29999999999998Q662.4000000000001 79.19999999999999 666.5000000000001 89.85Q670.6000000000001 100.5 670.6000000000001 115.19999999999999V123.4H579.0000000000001V105.7H657.5000000000001L645.2 110.9Q645.2 101.39999999999999 642.3000000000001 94.35Q639.4000000000001 87.3 633.7 83.3Q628.0000000000001 79.3 619.5000000000001 79.3Q611.0000000000001 79.3 605.0000000000001 83.3Q599.0000000000001 87.3 595.9000000000001 94.05Q592.8000000000001 100.8 592.8000000000001 109.1V121.4Q592.8000000000001 131.6 596.3500000000001 138.85Q599.9000000000001 146.1 606.3500000000001 149.89999999999998Q612.8000000000001 153.7 621.4000000000001 153.7Q627.0000000000001 153.7 631.6500000000001 152.1Q636.3000000000001 150.5 639.6500000000001 147.25Q643.0000000000001 144.0 644.8000000000001 139.2L669.4000000000001 142.1Q667.0000000000001 151.8 660.5500000000002 159.05Q654.1000000000001 166.3 644.0500000000002 170.25Q634.0000000000001 174.2 621.0000000000001 174.2ZM684.8000000000001 172.0V60.19999999999999H710.3000000000001V79.0H711.5Q714.5 69.19999999999999 722.0 63.94999999999999Q729.5 58.69999999999999 739.1 58.69999999999999Q741.2 58.69999999999999 743.95 58.89999999999999Q746.7 59.099999999999994 748.5 59.39999999999999V83.6Q746.8000000000001 83.0 743.2 82.6Q739.6 82.19999999999999 736.3000000000001 82.19999999999999Q729.0 82.19999999999999 723.3 85.29999999999998Q717.6 88.39999999999999 714.35 93.8Q711.1 99.2 711.1 106.39999999999999V172.0Z"/>
</svg>
